<mxfile host="Electron" modified="2023-08-26T08:26:54.997Z" agent="Mozilla/5.0 (Windows NT 10.0; Win64; x64) AppleWebKit/537.36 (KHTML, like Gecko) draw.io/21.6.8 Chrome/114.0.5735.289 Electron/25.5.0 Safari/537.36" etag="Y8rhbuwAlFxYQgv9QLyD" version="21.6.8" type="device">
  <diagram name="Page-1" id="2kmT9g5XK88WKTkvEGKb">
    <mxGraphModel dx="1036" dy="622" grid="1" gridSize="10" guides="1" tooltips="1" connect="1" arrows="1" fold="1" page="1" pageScale="1" pageWidth="827" pageHeight="1169" math="0" shadow="0">
      <root>
        <mxCell id="0" />
        <mxCell id="1" parent="0" />
        <mxCell id="qDBTKURm3CJqdhIfWEns-1" value="Modello logico" style="text;html=1;strokeColor=#82b366;fillColor=#d5e8d4;align=center;verticalAlign=middle;whiteSpace=wrap;rounded=0;fontSize=18;fontStyle=1" parent="1" vertex="1">
          <mxGeometry x="10" y="10" width="810" height="30" as="geometry" />
        </mxCell>
        <mxCell id="qDBTKURm3CJqdhIfWEns-2" style="edgeStyle=orthogonalEdgeStyle;rounded=0;orthogonalLoop=1;jettySize=auto;html=1;exitX=1;exitY=0.75;exitDx=0;exitDy=0;entryX=0;entryY=0.5;entryDx=0;entryDy=0;endArrow=none;endFill=0;" parent="1" source="qDBTKURm3CJqdhIfWEns-3" target="qDBTKURm3CJqdhIfWEns-18" edge="1">
          <mxGeometry relative="1" as="geometry">
            <mxPoint x="268" y="862" as="sourcePoint" />
            <Array as="points">
              <mxPoint x="210" y="758" />
              <mxPoint x="210" y="880" />
              <mxPoint x="335" y="880" />
            </Array>
          </mxGeometry>
        </mxCell>
        <mxCell id="qDBTKURm3CJqdhIfWEns-3" value="PRODUCTS" style="rounded=0;whiteSpace=wrap;html=1;" parent="1" vertex="1">
          <mxGeometry x="64" y="713" width="120" height="60" as="geometry" />
        </mxCell>
        <mxCell id="qDBTKURm3CJqdhIfWEns-4" style="edgeStyle=orthogonalEdgeStyle;rounded=0;orthogonalLoop=1;jettySize=auto;html=1;exitX=1;exitY=0.75;exitDx=0;exitDy=0;entryX=0.806;entryY=0.012;entryDx=0;entryDy=0;entryPerimeter=0;endArrow=none;endFill=0;" parent="1" source="qDBTKURm3CJqdhIfWEns-5" target="qDBTKURm3CJqdhIfWEns-7" edge="1">
          <mxGeometry relative="1" as="geometry">
            <mxPoint x="202.9999999999999" y="486" as="sourcePoint" />
            <Array as="points">
              <mxPoint x="167" y="389" />
              <mxPoint x="167" y="520" />
              <mxPoint x="139" y="520" />
            </Array>
          </mxGeometry>
        </mxCell>
        <mxCell id="qDBTKURm3CJqdhIfWEns-5" value="PRODUCTS CATEGORY" style="rounded=0;whiteSpace=wrap;html=1;" parent="1" vertex="1">
          <mxGeometry x="27" y="344" width="120" height="60" as="geometry" />
        </mxCell>
        <mxCell id="qDBTKURm3CJqdhIfWEns-6" style="edgeStyle=orthogonalEdgeStyle;rounded=0;orthogonalLoop=1;jettySize=auto;html=1;endArrow=none;endFill=0;entryX=0.75;entryY=0;entryDx=0;entryDy=0;exitX=0.937;exitY=0.967;exitDx=0;exitDy=0;exitPerimeter=0;" parent="1" source="qDBTKURm3CJqdhIfWEns-7" target="qDBTKURm3CJqdhIfWEns-3" edge="1">
          <mxGeometry relative="1" as="geometry">
            <mxPoint x="153.9999999999999" y="688" as="sourcePoint" />
          </mxGeometry>
        </mxCell>
        <mxCell id="qDBTKURm3CJqdhIfWEns-7" value="PRODUCTS SUBCATEGORY" style="rounded=0;whiteSpace=wrap;html=1;" parent="1" vertex="1">
          <mxGeometry x="42" y="526" width="120" height="60" as="geometry" />
        </mxCell>
        <mxCell id="qDBTKURm3CJqdhIfWEns-8" style="edgeStyle=orthogonalEdgeStyle;rounded=0;orthogonalLoop=1;jettySize=auto;html=1;exitX=0.25;exitY=1;exitDx=0;exitDy=0;entryX=1;entryY=0.5;entryDx=0;entryDy=0;endArrow=none;endFill=0;" parent="1" source="qDBTKURm3CJqdhIfWEns-9" target="qDBTKURm3CJqdhIfWEns-18" edge="1">
          <mxGeometry relative="1" as="geometry">
            <mxPoint x="556.52" y="881.52" as="sourcePoint" />
          </mxGeometry>
        </mxCell>
        <mxCell id="qDBTKURm3CJqdhIfWEns-9" value="CUSTOMERS" style="rounded=0;whiteSpace=wrap;html=1;" parent="1" vertex="1">
          <mxGeometry x="598" y="743" width="120" height="60" as="geometry" />
        </mxCell>
        <mxCell id="qDBTKURm3CJqdhIfWEns-11" value="E-SELLER" style="rounded=0;whiteSpace=wrap;html=1;" parent="1" vertex="1">
          <mxGeometry x="335" y="639" width="120" height="60" as="geometry" />
        </mxCell>
        <mxCell id="qDBTKURm3CJqdhIfWEns-12" style="edgeStyle=orthogonalEdgeStyle;rounded=0;orthogonalLoop=1;jettySize=auto;html=1;endArrow=none;endFill=0;exitX=0;exitY=0.25;exitDx=0;exitDy=0;entryX=0.25;entryY=0;entryDx=0;entryDy=0;" parent="1" source="qDBTKURm3CJqdhIfWEns-13" target="qDBTKURm3CJqdhIfWEns-18" edge="1">
          <mxGeometry relative="1" as="geometry">
            <mxPoint x="250.5" y="629" as="sourcePoint" />
            <mxPoint x="340" y="810" as="targetPoint" />
            <Array as="points">
              <mxPoint x="251" y="297" />
              <mxPoint x="251" y="810" />
              <mxPoint x="365" y="810" />
            </Array>
          </mxGeometry>
        </mxCell>
        <mxCell id="qDBTKURm3CJqdhIfWEns-13" value="DATE" style="rounded=0;whiteSpace=wrap;html=1;" parent="1" vertex="1">
          <mxGeometry x="345" y="282" width="120" height="60" as="geometry" />
        </mxCell>
        <mxCell id="qDBTKURm3CJqdhIfWEns-14" style="edgeStyle=orthogonalEdgeStyle;rounded=0;orthogonalLoop=1;jettySize=auto;html=1;exitX=0.75;exitY=0;exitDx=0;exitDy=0;entryX=1;entryY=0.75;entryDx=0;entryDy=0;endArrow=none;endFill=0;" parent="1" source="qDBTKURm3CJqdhIfWEns-101" target="qDBTKURm3CJqdhIfWEns-9" edge="1">
          <mxGeometry relative="1" as="geometry">
            <Array as="points">
              <mxPoint x="686" y="120" />
              <mxPoint x="810" y="120" />
              <mxPoint x="810" y="788" />
            </Array>
            <mxPoint x="771" y="544" as="sourcePoint" />
          </mxGeometry>
        </mxCell>
        <mxCell id="qDBTKURm3CJqdhIfWEns-15" style="edgeStyle=orthogonalEdgeStyle;rounded=0;orthogonalLoop=1;jettySize=auto;html=1;exitX=0.75;exitY=0;exitDx=0;exitDy=0;entryX=1;entryY=0.75;entryDx=0;entryDy=0;endArrow=none;endFill=0;" parent="1" source="qDBTKURm3CJqdhIfWEns-17" target="qDBTKURm3CJqdhIfWEns-101" edge="1">
          <mxGeometry relative="1" as="geometry">
            <Array as="points">
              <mxPoint x="667" y="320" />
              <mxPoint x="760" y="320" />
              <mxPoint x="760" y="210" />
              <mxPoint x="716" y="210" />
            </Array>
            <mxPoint x="759.5" y="320" as="sourcePoint" />
          </mxGeometry>
        </mxCell>
        <mxCell id="qDBTKURm3CJqdhIfWEns-16" style="edgeStyle=orthogonalEdgeStyle;rounded=0;orthogonalLoop=1;jettySize=auto;html=1;exitX=0;exitY=0.75;exitDx=0;exitDy=0;entryX=1;entryY=0.25;entryDx=0;entryDy=0;endArrow=none;endFill=0;" parent="1" source="qDBTKURm3CJqdhIfWEns-101" target="qDBTKURm3CJqdhIfWEns-11" edge="1">
          <mxGeometry relative="1" as="geometry">
            <mxPoint x="509.5" y="587" as="sourcePoint" />
            <Array as="points">
              <mxPoint x="530" y="211" />
              <mxPoint x="530" y="654" />
            </Array>
          </mxGeometry>
        </mxCell>
        <mxCell id="qDBTKURm3CJqdhIfWEns-17" value="TERRITORY" style="rounded=0;whiteSpace=wrap;html=1;" parent="1" vertex="1">
          <mxGeometry x="577" y="424" width="120" height="60" as="geometry" />
        </mxCell>
        <mxCell id="qDBTKURm3CJqdhIfWEns-18" value="SALES" style="rounded=0;whiteSpace=wrap;html=1;" parent="1" vertex="1">
          <mxGeometry x="335" y="852" width="120" height="60" as="geometry" />
        </mxCell>
        <mxCell id="qDBTKURm3CJqdhIfWEns-23" value="" style="edgeStyle=orthogonalEdgeStyle;rounded=0;orthogonalLoop=1;jettySize=auto;html=1;exitX=0.5;exitY=1;exitDx=0;exitDy=0;endArrow=none;endFill=0;entryX=0.5;entryY=0;entryDx=0;entryDy=0;" parent="1" source="qDBTKURm3CJqdhIfWEns-11" target="qDBTKURm3CJqdhIfWEns-18" edge="1">
          <mxGeometry relative="1" as="geometry">
            <mxPoint x="399" y="722" as="sourcePoint" />
            <mxPoint x="400" y="752" as="targetPoint" />
          </mxGeometry>
        </mxCell>
        <mxCell id="qDBTKURm3CJqdhIfWEns-28" style="edgeStyle=orthogonalEdgeStyle;rounded=0;orthogonalLoop=1;jettySize=auto;html=1;exitX=0.5;exitY=1;exitDx=0;exitDy=0;entryX=0.125;entryY=0.001;entryDx=0;entryDy=0;entryPerimeter=0;endArrow=none;endFill=0;" parent="1" source="qDBTKURm3CJqdhIfWEns-29" edge="1">
          <mxGeometry relative="1" as="geometry">
            <mxPoint x="380" y="639.06" as="targetPoint" />
          </mxGeometry>
        </mxCell>
        <mxCell id="qDBTKURm3CJqdhIfWEns-29" value="" style="ellipse;whiteSpace=wrap;html=1;aspect=fixed;fillColor=#000000;" parent="1" vertex="1">
          <mxGeometry x="376" y="609" width="10" height="10" as="geometry" />
        </mxCell>
        <mxCell id="qDBTKURm3CJqdhIfWEns-30" style="edgeStyle=orthogonalEdgeStyle;rounded=0;orthogonalLoop=1;jettySize=auto;html=1;exitX=0.5;exitY=1;exitDx=0;exitDy=0;entryX=0.125;entryY=0.001;entryDx=0;entryDy=0;entryPerimeter=0;endArrow=none;endFill=0;" parent="1" source="qDBTKURm3CJqdhIfWEns-31" edge="1">
          <mxGeometry relative="1" as="geometry">
            <mxPoint x="403" y="639" as="targetPoint" />
          </mxGeometry>
        </mxCell>
        <mxCell id="qDBTKURm3CJqdhIfWEns-31" value="" style="ellipse;whiteSpace=wrap;html=1;aspect=fixed;" parent="1" vertex="1">
          <mxGeometry x="398" y="609" width="10" height="10" as="geometry" />
        </mxCell>
        <mxCell id="qDBTKURm3CJqdhIfWEns-32" value="Seller_ID" style="text;html=1;strokeColor=none;fillColor=none;align=center;verticalAlign=middle;whiteSpace=wrap;rounded=0;fontStyle=0" parent="1" vertex="1">
          <mxGeometry x="346" y="589" width="60" height="20" as="geometry" />
        </mxCell>
        <mxCell id="qDBTKURm3CJqdhIfWEns-33" value="Name" style="text;html=1;strokeColor=none;fillColor=none;align=center;verticalAlign=middle;whiteSpace=wrap;rounded=0;fontStyle=0" parent="1" vertex="1">
          <mxGeometry x="382" y="574" width="36" height="20" as="geometry" />
        </mxCell>
        <mxCell id="qDBTKURm3CJqdhIfWEns-34" style="edgeStyle=orthogonalEdgeStyle;rounded=0;orthogonalLoop=1;jettySize=auto;html=1;exitX=0.5;exitY=1;exitDx=0;exitDy=0;entryX=0.125;entryY=0.001;entryDx=0;entryDy=0;entryPerimeter=0;endArrow=none;endFill=0;" parent="1" source="qDBTKURm3CJqdhIfWEns-35" edge="1">
          <mxGeometry relative="1" as="geometry">
            <mxPoint x="443" y="639" as="targetPoint" />
          </mxGeometry>
        </mxCell>
        <mxCell id="qDBTKURm3CJqdhIfWEns-35" value="" style="ellipse;whiteSpace=wrap;html=1;aspect=fixed;" parent="1" vertex="1">
          <mxGeometry x="438" y="609" width="10" height="10" as="geometry" />
        </mxCell>
        <mxCell id="qDBTKURm3CJqdhIfWEns-36" value="Address_ID" style="text;html=1;strokeColor=none;fillColor=none;align=center;verticalAlign=middle;whiteSpace=wrap;rounded=0;fontStyle=4" parent="1" vertex="1">
          <mxGeometry x="426" y="589" width="36" height="20" as="geometry" />
        </mxCell>
        <mxCell id="qDBTKURm3CJqdhIfWEns-37" style="edgeStyle=orthogonalEdgeStyle;rounded=0;orthogonalLoop=1;jettySize=auto;html=1;exitX=0.5;exitY=1;exitDx=0;exitDy=0;entryX=0.125;entryY=0.001;entryDx=0;entryDy=0;entryPerimeter=0;endArrow=none;endFill=0;" parent="1" source="qDBTKURm3CJqdhIfWEns-38" edge="1">
          <mxGeometry relative="1" as="geometry">
            <mxPoint x="340" y="639" as="targetPoint" />
          </mxGeometry>
        </mxCell>
        <mxCell id="qDBTKURm3CJqdhIfWEns-38" value="" style="ellipse;whiteSpace=wrap;html=1;aspect=fixed;" parent="1" vertex="1">
          <mxGeometry x="335" y="609" width="10" height="10" as="geometry" />
        </mxCell>
        <mxCell id="qDBTKURm3CJqdhIfWEns-39" value="DateBirth_ID" style="text;html=1;strokeColor=none;fillColor=none;align=center;verticalAlign=middle;whiteSpace=wrap;rounded=0;fontStyle=4" parent="1" vertex="1">
          <mxGeometry x="322" y="574" width="36" height="20" as="geometry" />
        </mxCell>
        <mxCell id="qDBTKURm3CJqdhIfWEns-40" style="edgeStyle=orthogonalEdgeStyle;rounded=0;orthogonalLoop=1;jettySize=auto;html=1;exitX=0.5;exitY=0;exitDx=0;exitDy=0;endArrow=none;endFill=0;" parent="1" source="qDBTKURm3CJqdhIfWEns-41" edge="1">
          <mxGeometry relative="1" as="geometry">
            <mxPoint x="377" y="342" as="targetPoint" />
          </mxGeometry>
        </mxCell>
        <mxCell id="qDBTKURm3CJqdhIfWEns-41" value="" style="ellipse;whiteSpace=wrap;html=1;aspect=fixed;fillColor=#000000;" parent="1" vertex="1">
          <mxGeometry x="372" y="360" width="10" height="10" as="geometry" />
        </mxCell>
        <mxCell id="qDBTKURm3CJqdhIfWEns-42" value="Date_ID" style="text;html=1;strokeColor=none;fillColor=none;align=center;verticalAlign=middle;whiteSpace=wrap;rounded=0;fontStyle=0" parent="1" vertex="1">
          <mxGeometry x="354" y="370" width="36" height="20" as="geometry" />
        </mxCell>
        <mxCell id="qDBTKURm3CJqdhIfWEns-43" style="edgeStyle=orthogonalEdgeStyle;rounded=0;orthogonalLoop=1;jettySize=auto;html=1;exitX=0.5;exitY=0;exitDx=0;exitDy=0;endArrow=none;endFill=0;" parent="1" source="qDBTKURm3CJqdhIfWEns-44" edge="1">
          <mxGeometry relative="1" as="geometry">
            <mxPoint x="427" y="342" as="targetPoint" />
          </mxGeometry>
        </mxCell>
        <mxCell id="qDBTKURm3CJqdhIfWEns-44" value="" style="ellipse;whiteSpace=wrap;html=1;aspect=fixed;fillColor=#FFFFFF;" parent="1" vertex="1">
          <mxGeometry x="422" y="360" width="10" height="10" as="geometry" />
        </mxCell>
        <mxCell id="qDBTKURm3CJqdhIfWEns-45" value="Date" style="text;html=1;strokeColor=none;fillColor=none;align=center;verticalAlign=middle;whiteSpace=wrap;rounded=0;fontStyle=0" parent="1" vertex="1">
          <mxGeometry x="409" y="370" width="36" height="20" as="geometry" />
        </mxCell>
        <mxCell id="qDBTKURm3CJqdhIfWEns-46" style="edgeStyle=orthogonalEdgeStyle;rounded=0;orthogonalLoop=1;jettySize=auto;html=1;exitX=0.5;exitY=0;exitDx=0;exitDy=0;endArrow=none;endFill=0;" parent="1" source="qDBTKURm3CJqdhIfWEns-47" edge="1">
          <mxGeometry relative="1" as="geometry">
            <mxPoint x="71" y="773" as="targetPoint" />
          </mxGeometry>
        </mxCell>
        <mxCell id="qDBTKURm3CJqdhIfWEns-47" value="" style="ellipse;whiteSpace=wrap;html=1;aspect=fixed;fillColor=#000000;" parent="1" vertex="1">
          <mxGeometry x="66" y="791" width="10" height="10" as="geometry" />
        </mxCell>
        <mxCell id="qDBTKURm3CJqdhIfWEns-48" value="Prod_ID" style="text;html=1;strokeColor=none;fillColor=none;align=center;verticalAlign=middle;whiteSpace=wrap;rounded=0;fontStyle=0" parent="1" vertex="1">
          <mxGeometry x="40" y="801" width="36" height="20" as="geometry" />
        </mxCell>
        <mxCell id="qDBTKURm3CJqdhIfWEns-49" style="edgeStyle=orthogonalEdgeStyle;rounded=0;orthogonalLoop=1;jettySize=auto;html=1;exitX=0.5;exitY=0;exitDx=0;exitDy=0;endArrow=none;endFill=0;" parent="1" source="qDBTKURm3CJqdhIfWEns-50" edge="1">
          <mxGeometry relative="1" as="geometry">
            <mxPoint x="99" y="773" as="targetPoint" />
          </mxGeometry>
        </mxCell>
        <mxCell id="qDBTKURm3CJqdhIfWEns-50" value="" style="ellipse;whiteSpace=wrap;html=1;aspect=fixed;fillColor=#FFFFFF;" parent="1" vertex="1">
          <mxGeometry x="94" y="791" width="10" height="10" as="geometry" />
        </mxCell>
        <mxCell id="qDBTKURm3CJqdhIfWEns-51" value="Name_P" style="text;html=1;strokeColor=none;fillColor=none;align=center;verticalAlign=middle;whiteSpace=wrap;rounded=0;fontStyle=0" parent="1" vertex="1">
          <mxGeometry x="81" y="820" width="36" height="20" as="geometry" />
        </mxCell>
        <mxCell id="qDBTKURm3CJqdhIfWEns-52" style="edgeStyle=orthogonalEdgeStyle;rounded=0;orthogonalLoop=1;jettySize=auto;html=1;exitX=0.5;exitY=0;exitDx=0;exitDy=0;endArrow=none;endFill=0;" parent="1" source="qDBTKURm3CJqdhIfWEns-53" edge="1">
          <mxGeometry relative="1" as="geometry">
            <mxPoint x="131" y="774" as="targetPoint" />
          </mxGeometry>
        </mxCell>
        <mxCell id="qDBTKURm3CJqdhIfWEns-53" value="" style="ellipse;whiteSpace=wrap;html=1;aspect=fixed;fillColor=#FFFFFF;" parent="1" vertex="1">
          <mxGeometry x="126" y="792" width="10" height="10" as="geometry" />
        </mxCell>
        <mxCell id="qDBTKURm3CJqdhIfWEns-54" value="Price_P" style="text;html=1;strokeColor=none;fillColor=none;align=center;verticalAlign=middle;whiteSpace=wrap;rounded=0;fontStyle=0" parent="1" vertex="1">
          <mxGeometry x="113" y="802" width="36" height="20" as="geometry" />
        </mxCell>
        <mxCell id="qDBTKURm3CJqdhIfWEns-55" style="edgeStyle=orthogonalEdgeStyle;rounded=0;orthogonalLoop=1;jettySize=auto;html=1;exitX=0.5;exitY=0;exitDx=0;exitDy=0;endArrow=none;endFill=0;" parent="1" source="qDBTKURm3CJqdhIfWEns-56" edge="1">
          <mxGeometry relative="1" as="geometry">
            <mxPoint x="58" y="586" as="targetPoint" />
          </mxGeometry>
        </mxCell>
        <mxCell id="qDBTKURm3CJqdhIfWEns-56" value="" style="ellipse;whiteSpace=wrap;html=1;aspect=fixed;fillColor=#000000;" parent="1" vertex="1">
          <mxGeometry x="53" y="604" width="10" height="10" as="geometry" />
        </mxCell>
        <mxCell id="qDBTKURm3CJqdhIfWEns-57" value="Subcat_ID" style="text;html=1;strokeColor=none;fillColor=none;align=center;verticalAlign=middle;whiteSpace=wrap;rounded=0;fontStyle=0" parent="1" vertex="1">
          <mxGeometry x="34" y="614" width="36" height="20" as="geometry" />
        </mxCell>
        <mxCell id="qDBTKURm3CJqdhIfWEns-58" style="edgeStyle=orthogonalEdgeStyle;rounded=0;orthogonalLoop=1;jettySize=auto;html=1;exitX=0.5;exitY=0;exitDx=0;exitDy=0;endArrow=none;endFill=0;" parent="1" source="qDBTKURm3CJqdhIfWEns-59" edge="1">
          <mxGeometry relative="1" as="geometry">
            <mxPoint x="110" y="586" as="targetPoint" />
          </mxGeometry>
        </mxCell>
        <mxCell id="qDBTKURm3CJqdhIfWEns-59" value="" style="ellipse;whiteSpace=wrap;html=1;aspect=fixed;fillColor=#FFFFFF;" parent="1" vertex="1">
          <mxGeometry x="105" y="604" width="10" height="10" as="geometry" />
        </mxCell>
        <mxCell id="qDBTKURm3CJqdhIfWEns-60" value="Subcat&lt;br&gt;_Name" style="text;html=1;strokeColor=none;fillColor=none;align=center;verticalAlign=middle;whiteSpace=wrap;rounded=0;fontStyle=0" parent="1" vertex="1">
          <mxGeometry x="91" y="620" width="36" height="20" as="geometry" />
        </mxCell>
        <mxCell id="qDBTKURm3CJqdhIfWEns-61" style="edgeStyle=orthogonalEdgeStyle;rounded=0;orthogonalLoop=1;jettySize=auto;html=1;exitX=0.5;exitY=1;exitDx=0;exitDy=0;endArrow=none;endFill=0;entryX=0.617;entryY=0.012;entryDx=0;entryDy=0;entryPerimeter=0;" parent="1" source="qDBTKURm3CJqdhIfWEns-62" target="qDBTKURm3CJqdhIfWEns-3" edge="1">
          <mxGeometry relative="1" as="geometry">
            <mxPoint x="138" y="710" as="targetPoint" />
          </mxGeometry>
        </mxCell>
        <mxCell id="qDBTKURm3CJqdhIfWEns-62" value="" style="ellipse;whiteSpace=wrap;html=1;aspect=fixed;fillColor=#FFFFFF;" parent="1" vertex="1">
          <mxGeometry x="133" y="677.94" width="10" height="10" as="geometry" />
        </mxCell>
        <mxCell id="qDBTKURm3CJqdhIfWEns-63" value="Subcat_ID" style="text;html=1;strokeColor=none;fillColor=none;align=center;verticalAlign=middle;whiteSpace=wrap;rounded=0;fontStyle=4" parent="1" vertex="1">
          <mxGeometry x="78.5" y="672.94" width="36" height="20" as="geometry" />
        </mxCell>
        <mxCell id="qDBTKURm3CJqdhIfWEns-64" style="edgeStyle=orthogonalEdgeStyle;rounded=0;orthogonalLoop=1;jettySize=auto;html=1;exitX=0.5;exitY=1;exitDx=0;exitDy=0;entryX=0.125;entryY=0.001;entryDx=0;entryDy=0;entryPerimeter=0;endArrow=none;endFill=0;" parent="1" source="qDBTKURm3CJqdhIfWEns-65" edge="1">
          <mxGeometry relative="1" as="geometry">
            <mxPoint x="654.5" y="743" as="targetPoint" />
          </mxGeometry>
        </mxCell>
        <mxCell id="qDBTKURm3CJqdhIfWEns-65" value="" style="ellipse;whiteSpace=wrap;html=1;aspect=fixed;fillColor=#000000;" parent="1" vertex="1">
          <mxGeometry x="649.5" y="712.94" width="10" height="10" as="geometry" />
        </mxCell>
        <mxCell id="qDBTKURm3CJqdhIfWEns-66" style="edgeStyle=orthogonalEdgeStyle;rounded=0;orthogonalLoop=1;jettySize=auto;html=1;exitX=0.5;exitY=1;exitDx=0;exitDy=0;entryX=0.125;entryY=0.001;entryDx=0;entryDy=0;entryPerimeter=0;endArrow=none;endFill=0;" parent="1" source="qDBTKURm3CJqdhIfWEns-67" edge="1">
          <mxGeometry relative="1" as="geometry">
            <mxPoint x="676.5" y="742.94" as="targetPoint" />
          </mxGeometry>
        </mxCell>
        <mxCell id="qDBTKURm3CJqdhIfWEns-67" value="" style="ellipse;whiteSpace=wrap;html=1;aspect=fixed;" parent="1" vertex="1">
          <mxGeometry x="671.5" y="712.94" width="10" height="10" as="geometry" />
        </mxCell>
        <mxCell id="qDBTKURm3CJqdhIfWEns-68" value="Customer&lt;br&gt;_ID" style="text;html=1;strokeColor=none;fillColor=none;align=center;verticalAlign=middle;whiteSpace=wrap;rounded=0;fontStyle=0" parent="1" vertex="1">
          <mxGeometry x="605.5" y="698" width="60" height="20" as="geometry" />
        </mxCell>
        <mxCell id="qDBTKURm3CJqdhIfWEns-69" value="Name" style="text;html=1;strokeColor=none;fillColor=none;align=center;verticalAlign=middle;whiteSpace=wrap;rounded=0;fontStyle=0" parent="1" vertex="1">
          <mxGeometry x="661" y="677.94" width="36" height="20" as="geometry" />
        </mxCell>
        <mxCell id="qDBTKURm3CJqdhIfWEns-70" style="edgeStyle=orthogonalEdgeStyle;rounded=0;orthogonalLoop=1;jettySize=auto;html=1;exitX=0.5;exitY=1;exitDx=0;exitDy=0;entryX=0.125;entryY=0.001;entryDx=0;entryDy=0;entryPerimeter=0;endArrow=none;endFill=0;" parent="1" source="qDBTKURm3CJqdhIfWEns-71" edge="1">
          <mxGeometry relative="1" as="geometry">
            <mxPoint x="609.5" y="742.94" as="targetPoint" />
          </mxGeometry>
        </mxCell>
        <mxCell id="qDBTKURm3CJqdhIfWEns-71" value="" style="ellipse;whiteSpace=wrap;html=1;aspect=fixed;" parent="1" vertex="1">
          <mxGeometry x="604.5" y="712.94" width="10" height="10" as="geometry" />
        </mxCell>
        <mxCell id="qDBTKURm3CJqdhIfWEns-72" value="Address_ID" style="text;html=1;strokeColor=none;fillColor=none;align=center;verticalAlign=middle;whiteSpace=wrap;rounded=0;fontStyle=4" parent="1" vertex="1">
          <mxGeometry x="706.5" y="692.94" width="36" height="20" as="geometry" />
        </mxCell>
        <mxCell id="qDBTKURm3CJqdhIfWEns-73" style="edgeStyle=orthogonalEdgeStyle;rounded=0;orthogonalLoop=1;jettySize=auto;html=1;exitX=0.5;exitY=1;exitDx=0;exitDy=0;entryX=0.125;entryY=0.001;entryDx=0;entryDy=0;entryPerimeter=0;endArrow=none;endFill=0;" parent="1" source="qDBTKURm3CJqdhIfWEns-74" edge="1">
          <mxGeometry relative="1" as="geometry">
            <mxPoint x="711.5" y="742.94" as="targetPoint" />
          </mxGeometry>
        </mxCell>
        <mxCell id="qDBTKURm3CJqdhIfWEns-74" value="" style="ellipse;whiteSpace=wrap;html=1;aspect=fixed;" parent="1" vertex="1">
          <mxGeometry x="706.5" y="712.94" width="10" height="10" as="geometry" />
        </mxCell>
        <mxCell id="qDBTKURm3CJqdhIfWEns-75" value="DateBirth_ID" style="text;html=1;strokeColor=none;fillColor=none;align=center;verticalAlign=middle;whiteSpace=wrap;rounded=0;fontStyle=4" parent="1" vertex="1">
          <mxGeometry x="548" y="707.94" width="36" height="20" as="geometry" />
        </mxCell>
        <mxCell id="qDBTKURm3CJqdhIfWEns-76" style="edgeStyle=orthogonalEdgeStyle;rounded=0;orthogonalLoop=1;jettySize=auto;html=1;exitX=0.5;exitY=0;exitDx=0;exitDy=0;endArrow=none;endFill=0;" parent="1" source="qDBTKURm3CJqdhIfWEns-77" edge="1">
          <mxGeometry relative="1" as="geometry">
            <mxPoint x="47.5" y="404" as="targetPoint" />
          </mxGeometry>
        </mxCell>
        <mxCell id="qDBTKURm3CJqdhIfWEns-77" value="" style="ellipse;whiteSpace=wrap;html=1;aspect=fixed;fillColor=#000000;" parent="1" vertex="1">
          <mxGeometry x="42.5" y="422" width="10" height="10" as="geometry" />
        </mxCell>
        <mxCell id="qDBTKURm3CJqdhIfWEns-78" value="Cat_ID" style="text;html=1;strokeColor=none;fillColor=none;align=center;verticalAlign=middle;whiteSpace=wrap;rounded=0;fontStyle=0" parent="1" vertex="1">
          <mxGeometry x="26.5" y="432" width="36" height="20" as="geometry" />
        </mxCell>
        <mxCell id="qDBTKURm3CJqdhIfWEns-79" style="edgeStyle=orthogonalEdgeStyle;rounded=0;orthogonalLoop=1;jettySize=auto;html=1;exitX=0.5;exitY=0;exitDx=0;exitDy=0;endArrow=none;endFill=0;" parent="1" source="qDBTKURm3CJqdhIfWEns-80" edge="1">
          <mxGeometry relative="1" as="geometry">
            <mxPoint x="112.5" y="404" as="targetPoint" />
          </mxGeometry>
        </mxCell>
        <mxCell id="qDBTKURm3CJqdhIfWEns-80" value="" style="ellipse;whiteSpace=wrap;html=1;aspect=fixed;fillColor=#FFFFFF;" parent="1" vertex="1">
          <mxGeometry x="107.5" y="422" width="10" height="10" as="geometry" />
        </mxCell>
        <mxCell id="qDBTKURm3CJqdhIfWEns-81" value="Name_Cat" style="text;html=1;strokeColor=none;fillColor=none;align=center;verticalAlign=middle;whiteSpace=wrap;rounded=0;fontStyle=0" parent="1" vertex="1">
          <mxGeometry x="94" y="432" width="36" height="20" as="geometry" />
        </mxCell>
        <mxCell id="qDBTKURm3CJqdhIfWEns-88" style="edgeStyle=orthogonalEdgeStyle;rounded=0;orthogonalLoop=1;jettySize=auto;html=1;exitX=0.5;exitY=0;exitDx=0;exitDy=0;endArrow=none;endFill=0;" parent="1" source="qDBTKURm3CJqdhIfWEns-89" edge="1">
          <mxGeometry relative="1" as="geometry">
            <mxPoint x="589" y="484" as="targetPoint" />
          </mxGeometry>
        </mxCell>
        <mxCell id="qDBTKURm3CJqdhIfWEns-89" value="" style="ellipse;whiteSpace=wrap;html=1;aspect=fixed;fillColor=#000000;" parent="1" vertex="1">
          <mxGeometry x="584" y="502" width="10" height="10" as="geometry" />
        </mxCell>
        <mxCell id="qDBTKURm3CJqdhIfWEns-90" value="Territory_ID" style="text;html=1;strokeColor=none;fillColor=none;align=center;verticalAlign=middle;whiteSpace=wrap;rounded=0;fontStyle=0" parent="1" vertex="1">
          <mxGeometry x="553" y="512" width="36" height="20" as="geometry" />
        </mxCell>
        <mxCell id="qDBTKURm3CJqdhIfWEns-91" style="edgeStyle=orthogonalEdgeStyle;rounded=0;orthogonalLoop=1;jettySize=auto;html=1;exitX=0.5;exitY=0;exitDx=0;exitDy=0;endArrow=none;endFill=0;" parent="1" source="qDBTKURm3CJqdhIfWEns-92" edge="1">
          <mxGeometry relative="1" as="geometry">
            <mxPoint x="618" y="484" as="targetPoint" />
          </mxGeometry>
        </mxCell>
        <mxCell id="qDBTKURm3CJqdhIfWEns-92" value="" style="ellipse;whiteSpace=wrap;html=1;aspect=fixed;fillColor=#FFFFFF;" parent="1" vertex="1">
          <mxGeometry x="613" y="502" width="10" height="10" as="geometry" />
        </mxCell>
        <mxCell id="qDBTKURm3CJqdhIfWEns-93" value="Continent" style="text;html=1;strokeColor=none;fillColor=none;align=center;verticalAlign=middle;whiteSpace=wrap;rounded=0;fontStyle=0" parent="1" vertex="1">
          <mxGeometry x="600" y="529" width="36" height="20" as="geometry" />
        </mxCell>
        <mxCell id="qDBTKURm3CJqdhIfWEns-94" style="edgeStyle=orthogonalEdgeStyle;rounded=0;orthogonalLoop=1;jettySize=auto;html=1;exitX=0.5;exitY=0;exitDx=0;exitDy=0;endArrow=none;endFill=0;" parent="1" source="qDBTKURm3CJqdhIfWEns-95" edge="1">
          <mxGeometry relative="1" as="geometry">
            <mxPoint x="647" y="484" as="targetPoint" />
          </mxGeometry>
        </mxCell>
        <mxCell id="qDBTKURm3CJqdhIfWEns-95" value="" style="ellipse;whiteSpace=wrap;html=1;aspect=fixed;fillColor=#FFFFFF;" parent="1" vertex="1">
          <mxGeometry x="642" y="502" width="10" height="10" as="geometry" />
        </mxCell>
        <mxCell id="qDBTKURm3CJqdhIfWEns-96" value="Country" style="text;html=1;strokeColor=none;fillColor=none;align=center;verticalAlign=middle;whiteSpace=wrap;rounded=0;fontStyle=0" parent="1" vertex="1">
          <mxGeometry x="626" y="512" width="36" height="20" as="geometry" />
        </mxCell>
        <mxCell id="qDBTKURm3CJqdhIfWEns-97" style="edgeStyle=orthogonalEdgeStyle;rounded=0;orthogonalLoop=1;jettySize=auto;html=1;exitX=0.5;exitY=0;exitDx=0;exitDy=0;endArrow=none;endFill=0;" parent="1" source="qDBTKURm3CJqdhIfWEns-98" edge="1">
          <mxGeometry relative="1" as="geometry">
            <mxPoint x="675" y="484" as="targetPoint" />
          </mxGeometry>
        </mxCell>
        <mxCell id="qDBTKURm3CJqdhIfWEns-98" value="" style="ellipse;whiteSpace=wrap;html=1;aspect=fixed;fillColor=#FFFFFF;" parent="1" vertex="1">
          <mxGeometry x="670" y="502" width="10" height="10" as="geometry" />
        </mxCell>
        <mxCell id="qDBTKURm3CJqdhIfWEns-99" value="Provices&lt;br&gt;/States" style="text;html=1;strokeColor=none;fillColor=none;align=center;verticalAlign=middle;whiteSpace=wrap;rounded=0;fontStyle=0" parent="1" vertex="1">
          <mxGeometry x="673" y="517" width="36" height="20" as="geometry" />
        </mxCell>
        <mxCell id="qDBTKURm3CJqdhIfWEns-100" style="edgeStyle=orthogonalEdgeStyle;rounded=0;orthogonalLoop=1;jettySize=auto;html=1;exitX=1;exitY=0.25;exitDx=0;exitDy=0;entryX=1;entryY=0.5;entryDx=0;entryDy=0;endArrow=none;endFill=0;" parent="1" source="qDBTKURm3CJqdhIfWEns-101" target="qDBTKURm3CJqdhIfWEns-121" edge="1">
          <mxGeometry relative="1" as="geometry">
            <mxPoint x="522.5" y="182" as="sourcePoint" />
          </mxGeometry>
        </mxCell>
        <mxCell id="qDBTKURm3CJqdhIfWEns-101" value="ADRESS" style="rounded=0;whiteSpace=wrap;html=1;" parent="1" vertex="1">
          <mxGeometry x="596" y="166" width="120" height="60" as="geometry" />
        </mxCell>
        <mxCell id="qDBTKURm3CJqdhIfWEns-102" style="edgeStyle=orthogonalEdgeStyle;rounded=0;orthogonalLoop=1;jettySize=auto;html=1;exitX=0.5;exitY=0;exitDx=0;exitDy=0;endArrow=none;endFill=0;" parent="1" source="qDBTKURm3CJqdhIfWEns-103" edge="1">
          <mxGeometry relative="1" as="geometry">
            <mxPoint x="601" y="226" as="targetPoint" />
          </mxGeometry>
        </mxCell>
        <mxCell id="qDBTKURm3CJqdhIfWEns-103" value="" style="ellipse;whiteSpace=wrap;html=1;aspect=fixed;fillColor=#000000;" parent="1" vertex="1">
          <mxGeometry x="596" y="244" width="10" height="10" as="geometry" />
        </mxCell>
        <mxCell id="qDBTKURm3CJqdhIfWEns-104" value="Territory_ID" style="text;html=1;strokeColor=none;fillColor=none;align=center;verticalAlign=middle;whiteSpace=wrap;rounded=0;fontStyle=4" parent="1" vertex="1">
          <mxGeometry x="754" y="151" width="36" height="20" as="geometry" />
        </mxCell>
        <mxCell id="qDBTKURm3CJqdhIfWEns-105" style="edgeStyle=orthogonalEdgeStyle;rounded=0;orthogonalLoop=1;jettySize=auto;html=1;exitX=0.5;exitY=0;exitDx=0;exitDy=0;endArrow=none;endFill=0;" parent="1" source="qDBTKURm3CJqdhIfWEns-106" edge="1">
          <mxGeometry relative="1" as="geometry">
            <mxPoint x="630" y="226" as="targetPoint" />
          </mxGeometry>
        </mxCell>
        <mxCell id="qDBTKURm3CJqdhIfWEns-106" value="" style="ellipse;whiteSpace=wrap;html=1;aspect=fixed;fillColor=#FFFFFF;" parent="1" vertex="1">
          <mxGeometry x="625" y="244" width="10" height="10" as="geometry" />
        </mxCell>
        <mxCell id="qDBTKURm3CJqdhIfWEns-107" style="edgeStyle=orthogonalEdgeStyle;rounded=0;orthogonalLoop=1;jettySize=auto;html=1;exitX=0.5;exitY=0;exitDx=0;exitDy=0;endArrow=none;endFill=0;" parent="1" source="qDBTKURm3CJqdhIfWEns-108" edge="1">
          <mxGeometry relative="1" as="geometry">
            <mxPoint x="659" y="226" as="targetPoint" />
          </mxGeometry>
        </mxCell>
        <mxCell id="qDBTKURm3CJqdhIfWEns-108" value="" style="ellipse;whiteSpace=wrap;html=1;aspect=fixed;fillColor=#FFFFFF;" parent="1" vertex="1">
          <mxGeometry x="654" y="244" width="10" height="10" as="geometry" />
        </mxCell>
        <mxCell id="qDBTKURm3CJqdhIfWEns-109" value="Postal&lt;br&gt;Code" style="text;html=1;strokeColor=none;fillColor=none;align=center;verticalAlign=middle;whiteSpace=wrap;rounded=0;fontStyle=0" parent="1" vertex="1">
          <mxGeometry x="638" y="258" width="36" height="20" as="geometry" />
        </mxCell>
        <mxCell id="qDBTKURm3CJqdhIfWEns-110" style="edgeStyle=orthogonalEdgeStyle;rounded=0;orthogonalLoop=1;jettySize=auto;html=1;exitX=0.5;exitY=0;exitDx=0;exitDy=0;endArrow=none;endFill=0;" parent="1" source="qDBTKURm3CJqdhIfWEns-111" edge="1">
          <mxGeometry relative="1" as="geometry">
            <mxPoint x="687" y="226" as="targetPoint" />
          </mxGeometry>
        </mxCell>
        <mxCell id="qDBTKURm3CJqdhIfWEns-111" value="" style="ellipse;whiteSpace=wrap;html=1;aspect=fixed;fillColor=#FFFFFF;" parent="1" vertex="1">
          <mxGeometry x="682" y="244" width="10" height="10" as="geometry" />
        </mxCell>
        <mxCell id="qDBTKURm3CJqdhIfWEns-112" value="Type&lt;br&gt;Street" style="text;html=1;strokeColor=none;fillColor=none;align=center;verticalAlign=middle;whiteSpace=wrap;rounded=0;fontStyle=0" parent="1" vertex="1">
          <mxGeometry x="670" y="282" width="36" height="20" as="geometry" />
        </mxCell>
        <mxCell id="qDBTKURm3CJqdhIfWEns-113" value="Address_ID" style="text;html=1;strokeColor=none;fillColor=none;align=center;verticalAlign=middle;whiteSpace=wrap;rounded=0;fontStyle=0" parent="1" vertex="1">
          <mxGeometry x="570" y="254" width="36" height="20" as="geometry" />
        </mxCell>
        <mxCell id="qDBTKURm3CJqdhIfWEns-114" style="edgeStyle=orthogonalEdgeStyle;rounded=0;orthogonalLoop=1;jettySize=auto;html=1;exitX=0.5;exitY=0;exitDx=0;exitDy=0;endArrow=none;endFill=0;" parent="1" source="qDBTKURm3CJqdhIfWEns-115" edge="1">
          <mxGeometry relative="1" as="geometry">
            <mxPoint x="713" y="226" as="targetPoint" />
          </mxGeometry>
        </mxCell>
        <mxCell id="qDBTKURm3CJqdhIfWEns-115" value="" style="ellipse;whiteSpace=wrap;html=1;aspect=fixed;fillColor=#FFFFFF;" parent="1" vertex="1">
          <mxGeometry x="708" y="244" width="10" height="10" as="geometry" />
        </mxCell>
        <mxCell id="qDBTKURm3CJqdhIfWEns-116" value="Name&lt;br&gt;street" style="text;html=1;strokeColor=none;fillColor=none;align=center;verticalAlign=middle;whiteSpace=wrap;rounded=0;fontStyle=0" parent="1" vertex="1">
          <mxGeometry x="696" y="256" width="36" height="20" as="geometry" />
        </mxCell>
        <mxCell id="qDBTKURm3CJqdhIfWEns-117" value="City" style="text;html=1;strokeColor=none;fillColor=none;align=center;verticalAlign=middle;whiteSpace=wrap;rounded=0;fontStyle=0" parent="1" vertex="1">
          <mxGeometry x="612" y="278" width="36" height="20" as="geometry" />
        </mxCell>
        <mxCell id="qDBTKURm3CJqdhIfWEns-118" style="edgeStyle=orthogonalEdgeStyle;rounded=0;orthogonalLoop=1;jettySize=auto;html=1;exitX=1;exitY=0.5;exitDx=0;exitDy=0;endArrow=none;endFill=0;entryX=0;entryY=0.75;entryDx=0;entryDy=0;" parent="1" source="qDBTKURm3CJqdhIfWEns-119" edge="1">
          <mxGeometry relative="1" as="geometry">
            <mxPoint x="596" y="180" as="targetPoint" />
          </mxGeometry>
        </mxCell>
        <mxCell id="qDBTKURm3CJqdhIfWEns-119" value="" style="ellipse;whiteSpace=wrap;html=1;aspect=fixed;fillColor=#FFFFFF;" parent="1" vertex="1">
          <mxGeometry x="554.5" y="175" width="10" height="10" as="geometry" />
        </mxCell>
        <mxCell id="qDBTKURm3CJqdhIfWEns-120" value="House&lt;br&gt;Nr" style="text;html=1;strokeColor=none;fillColor=none;align=center;verticalAlign=middle;whiteSpace=wrap;rounded=0;fontStyle=0" parent="1" vertex="1">
          <mxGeometry x="505.5" y="175" width="36" height="20" as="geometry" />
        </mxCell>
        <mxCell id="qDBTKURm3CJqdhIfWEns-121" value="" style="ellipse;whiteSpace=wrap;html=1;aspect=fixed;fillColor=#FFFFFF;" parent="1" vertex="1">
          <mxGeometry x="742.5" y="176" width="10" height="10" as="geometry" />
        </mxCell>
        <mxCell id="qDBTKURm3CJqdhIfWEns-122" style="edgeStyle=orthogonalEdgeStyle;rounded=0;orthogonalLoop=1;jettySize=auto;html=1;exitX=0.5;exitY=0;exitDx=0;exitDy=0;endArrow=none;endFill=0;" parent="1" source="qDBTKURm3CJqdhIfWEns-123" edge="1">
          <mxGeometry relative="1" as="geometry">
            <mxPoint x="378" y="912" as="targetPoint" />
          </mxGeometry>
        </mxCell>
        <mxCell id="qDBTKURm3CJqdhIfWEns-123" value="" style="ellipse;whiteSpace=wrap;html=1;aspect=fixed;fillColor=#FFFFFF;" parent="1" vertex="1">
          <mxGeometry x="373" y="930" width="10" height="10" as="geometry" />
        </mxCell>
        <mxCell id="qDBTKURm3CJqdhIfWEns-124" value="Nr&lt;br&gt;Ordine" style="text;html=1;strokeColor=none;fillColor=none;align=center;verticalAlign=middle;whiteSpace=wrap;rounded=0;fontStyle=0" parent="1" vertex="1">
          <mxGeometry x="359" y="941" width="36" height="20" as="geometry" />
        </mxCell>
        <mxCell id="qDBTKURm3CJqdhIfWEns-127" value="Prod_ID" style="text;html=1;strokeColor=none;fillColor=none;align=center;verticalAlign=middle;whiteSpace=wrap;rounded=0;fontStyle=4" parent="1" vertex="1">
          <mxGeometry x="260" y="884" width="36" height="20" as="geometry" />
        </mxCell>
        <mxCell id="qDBTKURm3CJqdhIfWEns-128" style="edgeStyle=orthogonalEdgeStyle;rounded=0;orthogonalLoop=1;jettySize=auto;html=1;exitX=0.5;exitY=0;exitDx=0;exitDy=0;endArrow=none;endFill=0;" parent="1" source="qDBTKURm3CJqdhIfWEns-129" edge="1">
          <mxGeometry relative="1" as="geometry">
            <mxPoint x="415" y="912" as="targetPoint" />
          </mxGeometry>
        </mxCell>
        <mxCell id="qDBTKURm3CJqdhIfWEns-129" value="" style="ellipse;whiteSpace=wrap;html=1;aspect=fixed;fillColor=#FFFFFF;" parent="1" vertex="1">
          <mxGeometry x="411" y="930" width="10" height="10" as="geometry" />
        </mxCell>
        <mxCell id="qDBTKURm3CJqdhIfWEns-130" value="Quantity" style="text;html=1;strokeColor=none;fillColor=none;align=center;verticalAlign=middle;whiteSpace=wrap;rounded=0;fontStyle=0" parent="1" vertex="1">
          <mxGeometry x="394" y="940" width="36" height="20" as="geometry" />
        </mxCell>
        <mxCell id="qDBTKURm3CJqdhIfWEns-131" style="edgeStyle=orthogonalEdgeStyle;rounded=0;orthogonalLoop=1;jettySize=auto;html=1;exitX=0.5;exitY=0;exitDx=0;exitDy=0;endArrow=none;endFill=0;" parent="1" source="qDBTKURm3CJqdhIfWEns-132" edge="1">
          <mxGeometry relative="1" as="geometry">
            <mxPoint x="443" y="912" as="targetPoint" />
          </mxGeometry>
        </mxCell>
        <mxCell id="qDBTKURm3CJqdhIfWEns-132" value="" style="ellipse;whiteSpace=wrap;html=1;aspect=fixed;fillColor=#FFFFFF;" parent="1" vertex="1">
          <mxGeometry x="439" y="930" width="10" height="10" as="geometry" />
        </mxCell>
        <mxCell id="qDBTKURm3CJqdhIfWEns-133" value="Tot&lt;br&gt;Cost" style="text;html=1;strokeColor=none;fillColor=none;align=center;verticalAlign=middle;whiteSpace=wrap;rounded=0;fontStyle=0" parent="1" vertex="1">
          <mxGeometry x="425" y="958" width="36" height="20" as="geometry" />
        </mxCell>
        <mxCell id="qDBTKURm3CJqdhIfWEns-136" value="Cust_ID" style="text;html=1;strokeColor=none;fillColor=none;align=center;verticalAlign=middle;whiteSpace=wrap;rounded=0;fontStyle=4" parent="1" vertex="1">
          <mxGeometry x="482" y="914" width="36" height="20" as="geometry" />
        </mxCell>
        <mxCell id="qDBTKURm3CJqdhIfWEns-137" style="edgeStyle=orthogonalEdgeStyle;rounded=0;orthogonalLoop=1;jettySize=auto;html=1;exitX=1;exitY=0.5;exitDx=0;exitDy=0;entryX=0;entryY=0.5;entryDx=0;entryDy=0;endArrow=none;endFill=0;" parent="1" target="qDBTKURm3CJqdhIfWEns-139" edge="1">
          <mxGeometry relative="1" as="geometry">
            <mxPoint x="455" y="909" as="sourcePoint" />
          </mxGeometry>
        </mxCell>
        <mxCell id="qDBTKURm3CJqdhIfWEns-139" value="" style="ellipse;whiteSpace=wrap;html=1;aspect=fixed;fillColor=#FFFFFF;" parent="1" vertex="1">
          <mxGeometry x="472" y="904" width="10" height="10" as="geometry" />
        </mxCell>
        <mxCell id="qDBTKURm3CJqdhIfWEns-144" value="" style="edgeStyle=orthogonalEdgeStyle;rounded=0;orthogonalLoop=1;jettySize=auto;html=1;exitX=0;exitY=0.5;exitDx=0;exitDy=0;entryX=0;entryY=0.75;entryDx=0;entryDy=0;endArrow=none;endFill=0;" parent="1" source="qDBTKURm3CJqdhIfWEns-11" target="qDBTKURm3CJqdhIfWEns-13" edge="1">
          <mxGeometry relative="1" as="geometry">
            <mxPoint x="428" y="669" as="sourcePoint" />
            <mxPoint x="288.5" y="486" as="targetPoint" />
            <Array as="points">
              <mxPoint x="300" y="669" />
              <mxPoint x="300" y="327" />
            </Array>
          </mxGeometry>
        </mxCell>
        <mxCell id="qDBTKURm3CJqdhIfWEns-156" style="edgeStyle=orthogonalEdgeStyle;rounded=0;orthogonalLoop=1;jettySize=auto;html=1;exitX=0.451;exitY=0.049;exitDx=0;exitDy=0;entryX=0.048;entryY=1.002;entryDx=0;entryDy=0;entryPerimeter=0;endArrow=none;endFill=0;exitPerimeter=0;" parent="1" source="qDBTKURm3CJqdhIfWEns-157" target="qDBTKURm3CJqdhIfWEns-18" edge="1">
          <mxGeometry relative="1" as="geometry" />
        </mxCell>
        <mxCell id="qDBTKURm3CJqdhIfWEns-157" value="" style="ellipse;whiteSpace=wrap;html=1;aspect=fixed;fillColor=#000000;" parent="1" vertex="1">
          <mxGeometry x="336" y="931" width="10" height="10" as="geometry" />
        </mxCell>
        <mxCell id="qDBTKURm3CJqdhIfWEns-158" value="ID" style="text;html=1;strokeColor=none;fillColor=none;align=center;verticalAlign=middle;whiteSpace=wrap;rounded=0;fontStyle=0" parent="1" vertex="1">
          <mxGeometry x="323" y="941" width="36" height="20" as="geometry" />
        </mxCell>
        <mxCell id="qDBTKURm3CJqdhIfWEns-160" value="1:N" style="text;html=1;strokeColor=none;fillColor=none;align=center;verticalAlign=middle;whiteSpace=wrap;rounded=0;" parent="1" vertex="1">
          <mxGeometry x="574.5" y="882" width="36" height="30" as="geometry" />
        </mxCell>
        <mxCell id="qDBTKURm3CJqdhIfWEns-163" value="1:N" style="text;html=1;strokeColor=none;fillColor=none;align=center;verticalAlign=middle;whiteSpace=wrap;rounded=0;" parent="1" vertex="1">
          <mxGeometry x="525.5" y="579" width="36" height="30" as="geometry" />
        </mxCell>
        <mxCell id="qDBTKURm3CJqdhIfWEns-165" value="1:N" style="text;html=1;strokeColor=none;fillColor=none;align=center;verticalAlign=middle;whiteSpace=wrap;rounded=0;" parent="1" vertex="1">
          <mxGeometry x="706" y="317" width="36" height="30" as="geometry" />
        </mxCell>
        <mxCell id="qDBTKURm3CJqdhIfWEns-171" value="1:N" style="text;html=1;strokeColor=none;fillColor=none;align=center;verticalAlign=middle;whiteSpace=wrap;rounded=0;" parent="1" vertex="1">
          <mxGeometry x="293" y="471" width="36" height="30" as="geometry" />
        </mxCell>
        <mxCell id="qDBTKURm3CJqdhIfWEns-175" value="" style="ellipse;whiteSpace=wrap;html=1;aspect=fixed;fillColor=#000000;" parent="1" vertex="1">
          <mxGeometry x="349" y="621" width="10" height="10" as="geometry" />
        </mxCell>
        <mxCell id="qDBTKURm3CJqdhIfWEns-176" value="" style="curved=1;endArrow=none;html=1;rounded=0;endFill=0;" parent="1" edge="1">
          <mxGeometry width="50" height="50" relative="1" as="geometry">
            <mxPoint x="275" y="660" as="sourcePoint" />
            <mxPoint x="351.25" y="625.84" as="targetPoint" />
            <Array as="points">
              <mxPoint x="281.25" y="635.84" />
              <mxPoint x="336.7599999999999" y="621.9399999999996" />
            </Array>
          </mxGeometry>
        </mxCell>
        <mxCell id="qDBTKURm3CJqdhIfWEns-177" style="edgeStyle=orthogonalEdgeStyle;rounded=0;orthogonalLoop=1;jettySize=auto;html=1;exitX=1;exitY=0.5;exitDx=0;exitDy=0;entryX=0.001;entryY=0.943;entryDx=0;entryDy=0;entryPerimeter=0;endArrow=none;endFill=0;" parent="1" source="qDBTKURm3CJqdhIfWEns-178" edge="1">
          <mxGeometry relative="1" as="geometry">
            <mxPoint x="335" y="894" as="targetPoint" />
          </mxGeometry>
        </mxCell>
        <mxCell id="qDBTKURm3CJqdhIfWEns-178" value="" style="ellipse;whiteSpace=wrap;html=1;aspect=fixed;fillColor=#FFFFFF;fontColor=#FFFFFF;" parent="1" vertex="1">
          <mxGeometry x="304" y="889" width="10" height="10" as="geometry" />
        </mxCell>
        <mxCell id="qDBTKURm3CJqdhIfWEns-179" value="Order_date" style="text;html=1;strokeColor=none;fillColor=none;align=center;verticalAlign=middle;whiteSpace=wrap;rounded=0;fontStyle=4" parent="1" vertex="1">
          <mxGeometry x="268" y="833" width="36" height="20" as="geometry" />
        </mxCell>
        <mxCell id="qDBTKURm3CJqdhIfWEns-180" value="" style="ellipse;whiteSpace=wrap;html=1;aspect=fixed;fillColor=#000000;" parent="1" vertex="1">
          <mxGeometry x="459" y="920" width="10" height="10" as="geometry" />
        </mxCell>
        <mxCell id="qDBTKURm3CJqdhIfWEns-181" value="" style="curved=1;endArrow=none;html=1;rounded=0;endFill=0;" parent="1" edge="1">
          <mxGeometry width="50" height="50" relative="1" as="geometry">
            <mxPoint x="462" y="925" as="sourcePoint" />
            <mxPoint x="500" y="870" as="targetPoint" />
            <Array as="points">
              <mxPoint x="468.13" y="900.9000000000001" />
              <mxPoint x="490" y="870" />
            </Array>
          </mxGeometry>
        </mxCell>
        <mxCell id="qDBTKURm3CJqdhIfWEns-182" value="Seller_ID" style="text;html=1;strokeColor=none;fillColor=none;align=center;verticalAlign=middle;whiteSpace=wrap;rounded=0;fontStyle=4" parent="1" vertex="1">
          <mxGeometry x="481.5" y="840" width="60" height="20" as="geometry" />
        </mxCell>
        <mxCell id="qDBTKURm3CJqdhIfWEns-183" style="edgeStyle=orthogonalEdgeStyle;rounded=0;orthogonalLoop=1;jettySize=auto;html=1;exitX=1;exitY=0.5;exitDx=0;exitDy=0;entryX=0;entryY=0.5;entryDx=0;entryDy=0;endArrow=none;endFill=0;" parent="1" target="qDBTKURm3CJqdhIfWEns-184" edge="1">
          <mxGeometry relative="1" as="geometry">
            <mxPoint x="455" y="857" as="sourcePoint" />
          </mxGeometry>
        </mxCell>
        <mxCell id="qDBTKURm3CJqdhIfWEns-184" value="" style="ellipse;whiteSpace=wrap;html=1;aspect=fixed;fillColor=#FFFFFF;" parent="1" vertex="1">
          <mxGeometry x="472" y="852" width="10" height="10" as="geometry" />
        </mxCell>
        <mxCell id="qDBTKURm3CJqdhIfWEns-185" value="1:N" style="text;html=1;strokeColor=none;fillColor=none;align=center;verticalAlign=middle;whiteSpace=wrap;rounded=0;" parent="1" vertex="1">
          <mxGeometry x="390" y="762" width="36" height="30" as="geometry" />
        </mxCell>
        <mxCell id="qDBTKURm3CJqdhIfWEns-186" value="" style="ellipse;whiteSpace=wrap;html=1;aspect=fixed;fillColor=#000000;" parent="1" vertex="1">
          <mxGeometry x="462" y="862" width="10" height="10" as="geometry" />
        </mxCell>
        <mxCell id="qDBTKURm3CJqdhIfWEns-187" value="" style="curved=1;endArrow=none;html=1;rounded=0;endFill=0;" parent="1" edge="1">
          <mxGeometry width="50" height="50" relative="1" as="geometry">
            <mxPoint x="390" y="820" as="sourcePoint" />
            <mxPoint x="466" y="866.0000000000005" as="targetPoint" />
            <Array as="points">
              <mxPoint x="442" y="820" />
              <mxPoint x="472" y="840" />
            </Array>
          </mxGeometry>
        </mxCell>
        <mxCell id="qDBTKURm3CJqdhIfWEns-188" value="1:N" style="text;html=1;strokeColor=none;fillColor=none;align=center;verticalAlign=middle;whiteSpace=wrap;rounded=0;" parent="1" vertex="1">
          <mxGeometry x="178" y="842" width="36" height="30" as="geometry" />
        </mxCell>
        <mxCell id="qDBTKURm3CJqdhIfWEns-189" style="edgeStyle=orthogonalEdgeStyle;rounded=0;orthogonalLoop=1;jettySize=auto;html=1;exitX=1;exitY=0.5;exitDx=0;exitDy=0;entryX=0.001;entryY=0.943;entryDx=0;entryDy=0;entryPerimeter=0;endArrow=none;endFill=0;" parent="1" source="qDBTKURm3CJqdhIfWEns-190" edge="1">
          <mxGeometry relative="1" as="geometry">
            <mxPoint x="335" y="858" as="targetPoint" />
          </mxGeometry>
        </mxCell>
        <mxCell id="qDBTKURm3CJqdhIfWEns-190" value="" style="ellipse;whiteSpace=wrap;html=1;aspect=fixed;fillColor=#FFFFFF;fontColor=#FFFFFF;" parent="1" vertex="1">
          <mxGeometry x="304" y="853" width="10" height="10" as="geometry" />
        </mxCell>
        <mxCell id="qDBTKURm3CJqdhIfWEns-191" value="" style="ellipse;whiteSpace=wrap;html=1;aspect=fixed;fillColor=#000000;" parent="1" vertex="1">
          <mxGeometry x="317" y="904" width="10" height="10" as="geometry" />
        </mxCell>
        <mxCell id="qDBTKURm3CJqdhIfWEns-192" value="" style="ellipse;whiteSpace=wrap;html=1;aspect=fixed;fillColor=#000000;" parent="1" vertex="1">
          <mxGeometry x="317" y="863" width="10" height="10" as="geometry" />
        </mxCell>
        <mxCell id="qDBTKURm3CJqdhIfWEns-193" value="" style="curved=1;endArrow=none;html=1;rounded=0;endFill=0;" parent="1" edge="1">
          <mxGeometry width="50" height="50" relative="1" as="geometry">
            <mxPoint x="323" y="863" as="sourcePoint" />
            <mxPoint x="370" y="840" as="targetPoint" />
            <Array as="points">
              <mxPoint x="329.13" y="838.9000000000001" />
              <mxPoint x="360" y="830" />
            </Array>
          </mxGeometry>
        </mxCell>
        <mxCell id="qDBTKURm3CJqdhIfWEns-194" value="" style="curved=1;endArrow=none;html=1;rounded=0;endFill=0;" parent="1" edge="1">
          <mxGeometry width="50" height="50" relative="1" as="geometry">
            <mxPoint x="323" y="906" as="sourcePoint" />
            <mxPoint x="286" y="870" as="targetPoint" />
            <Array as="points">
              <mxPoint x="320" y="890" />
              <mxPoint x="300" y="870" />
            </Array>
          </mxGeometry>
        </mxCell>
        <mxCell id="qDBTKURm3CJqdhIfWEns-195" value="1:N" style="text;html=1;strokeColor=none;fillColor=none;align=center;verticalAlign=middle;whiteSpace=wrap;rounded=0;" parent="1" vertex="1">
          <mxGeometry x="244" y="549" width="36" height="30" as="geometry" />
        </mxCell>
        <mxCell id="qDBTKURm3CJqdhIfWEns-196" value="1:N" style="text;html=1;strokeColor=none;fillColor=none;align=center;verticalAlign=middle;whiteSpace=wrap;rounded=0;" parent="1" vertex="1">
          <mxGeometry x="150" y="647.94" width="36" height="30" as="geometry" />
        </mxCell>
        <mxCell id="qDBTKURm3CJqdhIfWEns-197" value="" style="ellipse;whiteSpace=wrap;html=1;aspect=fixed;fillColor=#000000;" parent="1" vertex="1">
          <mxGeometry x="117" y="692.94" width="10" height="10" as="geometry" />
        </mxCell>
        <mxCell id="qDBTKURm3CJqdhIfWEns-198" value="" style="curved=1;endArrow=none;html=1;rounded=0;endFill=0;exitX=0.84;exitY=0.931;exitDx=0;exitDy=0;exitPerimeter=0;" parent="1" source="qDBTKURm3CJqdhIfWEns-196" edge="1">
          <mxGeometry width="50" height="50" relative="1" as="geometry">
            <mxPoint x="178" y="667.0000000000002" as="sourcePoint" />
            <mxPoint x="123.5" y="699.0000000000002" as="targetPoint" />
            <Array as="points">
              <mxPoint x="168" y="687.0000000000002" />
              <mxPoint x="137.5" y="699.0000000000002" />
            </Array>
          </mxGeometry>
        </mxCell>
        <mxCell id="qDBTKURm3CJqdhIfWEns-200" value="1:N" style="text;html=1;strokeColor=none;fillColor=none;align=center;verticalAlign=middle;whiteSpace=wrap;rounded=0;" parent="1" vertex="1">
          <mxGeometry x="162" y="460.00000000000006" width="36" height="30" as="geometry" />
        </mxCell>
        <mxCell id="qDBTKURm3CJqdhIfWEns-203" value="1:N" style="text;html=1;strokeColor=none;fillColor=none;align=center;verticalAlign=middle;whiteSpace=wrap;rounded=0;" parent="1" vertex="1">
          <mxGeometry x="770" y="555" width="36" height="30" as="geometry" />
        </mxCell>
        <mxCell id="qDBTKURm3CJqdhIfWEns-204" value="" style="ellipse;whiteSpace=wrap;html=1;aspect=fixed;fillColor=#000000;" parent="1" vertex="1">
          <mxGeometry x="722" y="161" width="10" height="10" as="geometry" />
        </mxCell>
        <mxCell id="qDBTKURm3CJqdhIfWEns-205" value="" style="curved=1;endArrow=none;html=1;rounded=0;endFill=0;" parent="1" edge="1">
          <mxGeometry width="50" height="50" relative="1" as="geometry">
            <mxPoint x="790" y="768" as="sourcePoint" />
            <mxPoint x="697" y="733.9" as="targetPoint" />
            <Array as="points">
              <mxPoint x="767" y="743.9" />
              <mxPoint x="711.4900000000001" y="729.9999999999995" />
            </Array>
          </mxGeometry>
        </mxCell>
        <mxCell id="qDBTKURm3CJqdhIfWEns-206" value="" style="ellipse;whiteSpace=wrap;html=1;aspect=fixed;fillColor=#000000;" parent="1" vertex="1">
          <mxGeometry x="691.5" y="727.94" width="10" height="10" as="geometry" />
        </mxCell>
        <mxCell id="qDBTKURm3CJqdhIfWEns-207" value="" style="curved=1;endArrow=none;html=1;rounded=0;endFill=0;" parent="1" edge="1">
          <mxGeometry width="50" height="50" relative="1" as="geometry">
            <mxPoint x="740" y="230" as="sourcePoint" />
            <mxPoint x="724" y="171" as="targetPoint" />
            <Array as="points">
              <mxPoint x="734" y="161" />
            </Array>
          </mxGeometry>
        </mxCell>
        <mxCell id="qDBTKURm3CJqdhIfWEns-208" value="" style="curved=1;endArrow=none;html=1;rounded=0;endFill=0;" parent="1" edge="1">
          <mxGeometry width="50" height="50" relative="1" as="geometry">
            <mxPoint x="480" y="660" as="sourcePoint" />
            <mxPoint x="434.5" y="626.96" as="targetPoint" />
            <Array as="points">
              <mxPoint x="480" y="640" />
              <mxPoint x="448.9900000000001" y="623.0599999999995" />
            </Array>
          </mxGeometry>
        </mxCell>
        <mxCell id="qDBTKURm3CJqdhIfWEns-209" value="" style="ellipse;whiteSpace=wrap;html=1;aspect=fixed;fillColor=#000000;" parent="1" vertex="1">
          <mxGeometry x="429" y="621" width="10" height="10" as="geometry" />
        </mxCell>
        <mxCell id="qDBTKURm3CJqdhIfWEns-210" value="" style="curved=1;endArrow=none;html=1;rounded=0;endFill=0;" parent="1" edge="1">
          <mxGeometry width="50" height="50" relative="1" as="geometry">
            <mxPoint x="530" y="770" as="sourcePoint" />
            <mxPoint x="617.5" y="731.84" as="targetPoint" />
            <Array as="points">
              <mxPoint x="550" y="740" />
              <mxPoint x="603.0099999999999" y="727.9399999999996" />
            </Array>
          </mxGeometry>
        </mxCell>
        <mxCell id="qDBTKURm3CJqdhIfWEns-211" value="" style="ellipse;whiteSpace=wrap;html=1;aspect=fixed;fillColor=#000000;" parent="1" vertex="1">
          <mxGeometry x="616" y="727.94" width="10" height="10" as="geometry" />
        </mxCell>
        <mxCell id="qDBTKURm3CJqdhIfWEns-213" style="edgeStyle=orthogonalEdgeStyle;rounded=0;orthogonalLoop=1;jettySize=auto;html=1;exitX=0;exitY=0.25;exitDx=0;exitDy=0;endArrow=none;endFill=0;" parent="1" edge="1">
          <mxGeometry relative="1" as="geometry">
            <mxPoint x="500" y="660" as="targetPoint" />
            <Array as="points">
              <mxPoint x="500" y="758" />
              <mxPoint x="500" y="660" />
            </Array>
            <mxPoint x="598" y="758" as="sourcePoint" />
          </mxGeometry>
        </mxCell>
        <mxCell id="qDBTKURm3CJqdhIfWEns-214" style="edgeStyle=orthogonalEdgeStyle;rounded=0;orthogonalLoop=1;jettySize=auto;html=1;exitX=1;exitY=0.75;exitDx=0;exitDy=0;endArrow=none;endFill=0;" parent="1" source="qDBTKURm3CJqdhIfWEns-13" edge="1">
          <mxGeometry relative="1" as="geometry">
            <mxPoint x="500" y="650" as="targetPoint" />
            <mxPoint x="501" y="412" as="sourcePoint" />
          </mxGeometry>
        </mxCell>
        <mxCell id="qDBTKURm3CJqdhIfWEns-215" value="1:N" style="text;html=1;strokeColor=none;fillColor=none;align=center;verticalAlign=middle;whiteSpace=wrap;rounded=0;" parent="1" vertex="1">
          <mxGeometry x="467" y="492" width="36" height="30" as="geometry" />
        </mxCell>
        <mxCell id="lQPgLP0EFl-cfVseJnYB-1" style="edgeStyle=orthogonalEdgeStyle;rounded=0;orthogonalLoop=1;jettySize=auto;html=1;exitX=0.5;exitY=1;exitDx=0;exitDy=0;endArrow=none;endFill=0;entryX=0.617;entryY=0.012;entryDx=0;entryDy=0;entryPerimeter=0;" parent="1" source="lQPgLP0EFl-cfVseJnYB-2" edge="1">
          <mxGeometry relative="1" as="geometry">
            <mxPoint x="132.75" y="526" as="targetPoint" />
          </mxGeometry>
        </mxCell>
        <mxCell id="lQPgLP0EFl-cfVseJnYB-2" value="" style="ellipse;whiteSpace=wrap;html=1;aspect=fixed;fillColor=#FFFFFF;" parent="1" vertex="1">
          <mxGeometry x="127.75" y="489.94000000000005" width="10" height="10" as="geometry" />
        </mxCell>
        <mxCell id="lQPgLP0EFl-cfVseJnYB-3" value="Cat_ID" style="text;html=1;strokeColor=none;fillColor=none;align=center;verticalAlign=middle;whiteSpace=wrap;rounded=0;fontStyle=4" parent="1" vertex="1">
          <mxGeometry x="73.25" y="484.94000000000005" width="36" height="20" as="geometry" />
        </mxCell>
        <mxCell id="lQPgLP0EFl-cfVseJnYB-4" value="" style="ellipse;whiteSpace=wrap;html=1;aspect=fixed;fillColor=#000000;" parent="1" vertex="1">
          <mxGeometry x="111.75" y="504.94000000000005" width="10" height="10" as="geometry" />
        </mxCell>
        <mxCell id="lQPgLP0EFl-cfVseJnYB-5" value="" style="curved=1;endArrow=none;html=1;rounded=0;endFill=0;exitX=0.84;exitY=0.931;exitDx=0;exitDy=0;exitPerimeter=0;" parent="1" edge="1">
          <mxGeometry width="50" height="50" relative="1" as="geometry">
            <mxPoint x="174.75" y="488" as="sourcePoint" />
            <mxPoint x="118.25" y="511.0000000000002" as="targetPoint" />
            <Array as="points">
              <mxPoint x="162.75" y="499.0000000000002" />
              <mxPoint x="132.25" y="511.0000000000002" />
            </Array>
          </mxGeometry>
        </mxCell>
      </root>
    </mxGraphModel>
  </diagram>
</mxfile>
